P3 2 2
220
76
0
153
76
0
153
102
0
204
102
0
204
